<svg version="1.2" baseProfile="tiny-ps" xmlns="http://www.w3.org/2000/svg" viewBox="0 0 1465 1581" width="1465" height="1581">
<title>airbnb-svg copy-svg</title>
	<style>
		tspan { white-space:pre }
		.shp0 { fill: #ff385c } 
	</style>
	<path id="Layer" fill-rule="evenodd" class="shp0" d="M1443.76 1120.36C1449.1 1134.02 1453.44 1148.06 1456.71 1162.35C1459.94 1176.64 1462.14 1191.19 1463.21 1205.79C1464.31 1220.43 1464.31 1235.13 1463.18 1249.73C1462.08 1264.37 1459.88 1278.88 1456.58 1293.17C1450.93 1332.9 1438.17 1371.32 1418.92 1406.52C1399.69 1441.77 1374.28 1473.24 1343.93 1499.46C1313.56 1525.72 1278.75 1546.29 1241.12 1560.21C1203.48 1574.12 1163.68 1581.16 1123.57 1581C1106.2 1580.53 1088.86 1578.99 1071.67 1576.35C1054.49 1573.68 1037.5 1569.98 1020.82 1565.2C1004.1 1560.4 987.71 1554.59 971.72 1547.74C955.76 1540.89 940.21 1533.04 925.23 1524.21C862.56 1487.68 799.42 1435.36 730.34 1359.82C661.26 1435.36 599.6 1487.68 535.45 1523.74C523.48 1530.84 511.14 1537.34 498.51 1543.22C485.88 1549.06 472.94 1554.3 459.78 1558.86C446.61 1563.41 433.2 1567.31 419.66 1570.51C406.09 1573.71 392.39 1576.23 378.57 1578.05C320.77 1585.52 262 1577.76 208.06 1555.59C154.16 1533.42 106.94 1497.58 71.1 1451.56C35.22 1405.58 11.98 1351.03 3.59 1293.3C-4.76 1235.57 2.02 1176.64 23.35 1122.34C31.24 1101.61 39.12 1082.86 47.04 1065.58C59.35 1036.94 72.2 1010.27 83.04 984.61L85.99 981.63C194.55 744.65 312.45 503.74 433.33 266.76L438.26 256.87C451.11 233.69 463.42 208.5 475.76 182.81C491.57 154.7 508.81 124.58 532.03 95.93C556.53 65.97 587.41 41.85 622.4 25.26C657.36 8.68 695.59 0.07 734.3 0.07C773 0.07 811.23 8.68 846.19 25.26C881.18 41.85 912.06 65.97 936.57 95.93C961.73 124.58 977.03 154.7 992.83 182.81C1005.64 206.52 1017.99 232.18 1030.3 255.39L1035.27 265.29C1158.09 502.27 1274.04 743.17 1382.57 980.15L1384.08 981.63L1420.58 1064.08C1428.47 1081.38 1435.88 1101.61 1443.76 1120.86L1443.76 1120.36ZM1363.85 1275.9C1368.78 1236.38 1363.85 1196.9 1354.46 1152.46C1349.52 1136.16 1341.64 1120.86 1333.76 1101.61C1321.41 1076.92 1310.54 1048.28 1297.72 1022.62L1296.25 1021.14C1187.72 785.64 1071.27 545.2 950.89 309.7L945.96 299.84C933.11 276.63 920.8 250.97 908.45 227.25C895.63 202.09 881.31 177.88 864.06 158.15C848.67 139.78 829.48 125.02 807.77 114.87C786.06 104.73 762.44 99.48 738.47 99.48C714.54 99.48 690.88 104.73 669.21 114.87C647.5 125.02 628.31 139.78 612.91 158.15C595.17 177.88 581.34 202.09 568.53 227.25C555.68 250.97 543.37 276.12 531.02 299.84L526.09 309.7C405.21 545.2 288.79 785.64 182.21 1021.14L180.23 1024.59C167.91 1051.26 155.07 1077.93 144.23 1103.59C136.31 1122.34 128.93 1138.14 124 1153.94C108.2 1198.38 104.74 1237.86 109.67 1277.37C113.88 1307.74 123.97 1337.02 139.39 1363.49C154.82 1390 175.3 1413.21 199.61 1431.87C223.96 1450.5 251.73 1464.19 281.32 1472.14C310.91 1480.12 341.76 1482.22 372.16 1478.29C411.62 1473.36 450.6 1461.02 491.57 1437.34C508.5 1427.13 524.99 1416.2 541.01 1404.61C557.03 1393.02 572.58 1380.74 587.56 1367.86C602.58 1354.95 617.03 1341.41 630.88 1327.31C644.74 1313.21 658.02 1298.51 670.65 1283.31C568.53 1155.41 504.38 1036.94 480.7 932.76C467.88 885.36 466.4 839.44 472.81 797.98C474.13 788.24 476.05 778.6 478.5 769.05C480.95 759.54 483.93 750.18 487.45 741C491 731.83 495.05 722.85 499.61 714.15C504.16 705.45 509.22 697 514.75 688.87C564.07 619.26 645.49 576.8 736.75 576.8C758.33 576.39 779.88 578.62 800.92 583.46C821.94 588.26 842.33 595.65 861.55 605.44C880.81 615.21 898.78 627.31 915.08 641.44C931.38 655.6 945.9 671.69 958.27 689.37C963.71 697.5 968.7 705.95 973.23 714.65C977.75 723.32 981.8 732.24 985.35 741.38C988.93 750.49 992.01 759.82 994.55 769.27C997.13 778.73 999.17 788.31 1000.71 797.98C1005.64 838.97 1004.17 883.38 992.83 932.76C969.14 1036.94 906.47 1153.94 802.87 1282.3C815.72 1297.25 829.16 1311.7 843.11 1325.62C857.09 1339.53 871.57 1352.91 886.56 1365.72C901.54 1378.51 917 1390.76 932.92 1402.35C948.85 1413.97 965.21 1424.99 981.96 1435.36C1022.42 1459.04 1061.9 1471.89 1101.36 1476.82C1141.82 1481.28 1183.25 1476.82 1220.76 1461.02C1239.64 1453.23 1257.42 1442.99 1273.66 1430.58C1289.9 1418.21 1304.48 1403.73 1316.98 1387.55C1329.48 1371.38 1339.82 1353.63 1347.7 1334.79C1355.62 1315.94 1361.05 1296.15 1363.85 1275.9ZM893.66 909.07C901.54 874.02 903.52 840.95 898.59 812.3C895.63 787.11 886.24 765.41 873.43 745.65C865.7 734.66 856.65 724.67 846.47 715.91C836.29 707.15 825.08 699.67 813.08 693.64C801.05 687.64 788.36 683.15 775.23 680.26C762.13 677.37 748.71 676.11 735.27 676.52C678.54 676.52 626.74 703.19 597.15 746.16C584.3 764.91 574.94 787.11 571.48 812.3C570.35 820.34 569.63 828.45 569.25 836.55C568.9 844.69 568.94 852.79 569.34 860.92C569.75 869.03 570.57 877.13 571.73 885.17C572.93 893.21 574.47 901.19 576.41 909.07C595.17 994.47 650.42 1094.2 735.27 1202.81C819.65 1093.72 874.9 993 893.66 909.07Z" />
</svg>